# xmcd
# Track frame offsets:
# 150
# 15862
# 34320
# 51607
# 67593
# 85076
# 100508
# 121966
# 151819
# 166902
# 178611
# 195040
#
# Disc length: 2844 seconds
# Revision: 0
# Processed by: cddbd v1.5.1PL2 Copyright (c) Steve Scherf et al.
# Submitted via: VisiTrax 2.9.10.228 - For more info visit www.synapsa.com
#
DISCID=7f0b1a0c
DTITLE=Rick and Cathy - Through Our Eyes.
DYEAR=2005
DGENRE=Country
TTITLE0=Through Our Eyes.
TTITLE1=When the First Rain Falls.
TTITLE2=Drovin' In The Rain.
TTITLE3=Just Saddle Old Darkie.
TTITLE4=Yesterdays Roses.
TTITLE5=This place We Call Australia.
TTITLE6=Our Town.
TTITLE7=Ringer and The Princess.The.
TTITLE8=Seeing Eye Dog.The.
TTITLE9=Would You Mind.
TTITLE10=Little Craigie Church.The.
TTITLE11=I Wish I Was Single Again.
EXTD=
EXTT0=
EXTT1=
EXTT2=
EXTT3=
EXTT4=
EXTT5=
EXTT6=
EXTT7=
EXTT8=
EXTT9=
EXTT10=
EXTT11=
PLAYORDER=
